<?xml version="1.0" encoding="utf-8"?>
<!-- Generator: Adobe Illustrator 26.2.1, SVG Export Plug-In . SVG Version: 6.00 Build 0)  -->
<svg version="1.1" id="a" xmlns="http://www.w3.org/2000/svg" xmlns:xlink="http://www.w3.org/1999/xlink" x="0px" y="0px"
	 viewBox="0 0 23.1 23.4" style="enable-background:new 0 0 23.1 23.4;" xml:space="preserve">
<path d="M10.1,23.2c-0.5,0-1-0.1-1.5-0.4l0,0c-1.4-0.7-2.1-2.2-1.8-3.7c0.1-0.3,0.3-0.5,0.6-0.4s0.5,0.3,0.4,0.6
	c-0.2,1,0.3,2,1.3,2.5c1,0.5,2.1,0.3,2.7-0.6c0.2-0.2,0.5-0.3,0.8-0.1c0.2,0.2,0.3,0.5,0.1,0.8C12,22.7,11.1,23.2,10.1,23.2
	L10.1,23.2z"/>
<path d="M18.4,4.3c-1.2,0-2.1-1-2.1-2.1s1-2.1,2.1-2.1s2.1,1,2.1,2.1S19.6,4.3,18.4,4.3z M18.4,1.1c-0.6,0-1.1,0.5-1.1,1.1
	s0.5,1.1,1.1,1.1s1.1-0.5,1.1-1.1S19,1.1,18.4,1.1z"/>
<path d="M20.5,23.4c-0.3,0-0.6-0.1-0.9-0.2h0L1.3,14.6c-0.6-0.3-1-0.8-1.2-1.5c-0.2-0.6-0.1-1.3,0.1-1.9c0.3-0.6,0.7-1,1.2-1.3
	c0.6-0.3,1.2-0.3,1.8,0C3.6,10,4,10,4.2,9.9C4.5,9.8,4.8,9.5,5,9.1l0,0c0.5-1.1,1.2-2,2.1-2.8c0.9-0.8,1.9-1.3,3-1.7
	C11.2,4.2,12.3,4,13.5,4c1.2,0,2.4,0.3,3.4,0.8c2.1,1,3.7,2.8,4.5,5c0.8,2.3,0.7,4.8-0.3,6.9c-0.1,0.3-0.1,0.7,0,1
	c0.1,0.3,0.4,0.6,0.7,0.8c0.6,0.3,1,0.8,1.2,1.5c0.2,0.6,0.1,1.3-0.1,1.9C22.5,22.7,21.5,23.4,20.5,23.4L20.5,23.4z M20.1,22.3
	c0.7,0.3,1.5-0.2,1.9-0.9c0.1-0.3,0.2-0.8,0.1-1.1c-0.1-0.4-0.3-0.7-0.6-0.8c-0.6-0.3-1-0.7-1.2-1.3c-0.2-0.6-0.2-1.3,0.1-1.8
	c0.9-1.9,1-4.1,0.2-6.1c-0.7-2-2.1-3.6-4-4.4C12.6,4,7.8,5.7,6,9.6c-0.3,0.6-0.8,1.1-1.4,1.3c-0.6,0.2-1.2,0.2-1.7-0.1
	c-0.6-0.3-1.3,0.2-1.6,0.8C1.1,12,1,12.4,1.1,12.8c0.1,0.4,0.3,0.7,0.6,0.8L20.1,22.3L20.1,22.3z"/>
</svg>
