<?xml version="1.0" encoding="UTF-8"?><svg id="a" xmlns="http://www.w3.org/2000/svg" viewBox="0 0 29 30"><path d="M18.85,14.95h-2.26v-2.26c0-.13-.05-.26-.15-.35s-.22-.15-.35-.15h-3.15c-.28,0-.5,.22-.5,.5v2.26h-2.24c-.28,0-.5,.22-.5,.5v3.14c0,.13,.05,.26,.15,.35,.09,.09,.22,.15,.35,.15h2.24v2.25h0c0,.13,.05,.26,.15,.35s.22,.15,.35,.15h3.15c.13,0,.26-.05,.35-.15s.15-.22,.15-.35v-2.25h2.26c.13,0,.26-.05,.35-.15,.09-.09,.15-.22,.15-.35v-3.14c0-.28-.22-.5-.5-.5h0Zm-.5,3.14h-2.26c-.28,0-.5,.22-.5,.5v2.25h-2.15v-2.25c0-.13-.05-.26-.15-.35-.09-.09-.22-.15-.35-.15h-2.24v-2.14h2.24c.13,0,.26-.05,.35-.15s.15-.22,.15-.35v-2.26h2.15v2.26c0,.13,.05,.26,.15,.35s.22,.15,.35,.15h2.26v2.14Z" fill="#010101"/><g><path d="M18.11,6.73c-1.59-2.37-3.09-4.61-3.09-5.68,0-.28-.22-.5-.5-.5s-.5,.22-.5,.5c0,1.07-1.51,3.31-3.09,5.68-2.68,3.99-6.02,8.95-6.02,13.34,.06,2.51,1.09,4.89,2.89,6.65,1.79,1.75,4.2,2.74,6.71,2.74s4.92-.98,6.71-2.74c1.79-1.75,2.83-4.14,2.89-6.65,.02-4.39-3.31-9.35-5.99-13.34h0Zm-3.59,21.93c-2.28,0-4.46-.91-6.07-2.52-1.61-1.61-2.52-3.8-2.52-6.07,0-4.08,3.23-8.9,5.83-12.78,1.02-1.43,1.94-2.92,2.76-4.48,.82,1.55,1.74,3.05,2.76,4.48,2.6,3.87,5.84,8.7,5.84,12.78,0,2.28-.91,4.46-2.52,6.07-1.61,1.61-3.8,2.52-6.08,2.52h0Z" fill="#010101"/><path d="M14.5,29.82c-2.62,0-5.1-1.01-6.97-2.84-1.88-1.83-2.94-4.28-3-6.91,0-4.49,3.35-9.47,6.04-13.48l.41,.07-.31-.21c1.46-2.19,2.98-4.45,2.98-5.39,0-.48,.39-.88,.88-.88s.88,.39,.88,.88c0,.95,1.52,3.21,2.98,5.4l-.27,.28,.31-.21c2.71,4.03,6.07,9.04,6.05,13.55-.06,2.63-1.13,5.08-3,6.91-1.88,1.83-4.35,2.84-6.97,2.84Zm.02-28.9c-.07,0-.13,.06-.13,.13,0,1.17-1.44,3.32-3.11,5.81l-.1,.14c-2.63,3.92-5.91,8.81-5.91,13.06,.06,2.42,1.04,4.68,2.78,6.38,1.73,1.7,4.02,2.63,6.45,2.63s4.72-.93,6.45-2.63c1.73-1.69,2.72-3.96,2.77-6.39,.02-4.26-3.28-9.17-5.92-13.12h0l.31-.21-.36,.14c-1.67-2.49-3.11-4.64-3.11-5.82,0-.07-.06-.13-.13-.13Zm0,28.11c-2.39,0-4.64-.94-6.34-2.63-1.69-1.69-2.63-3.95-2.63-6.34,0-4.2,3.27-9.07,5.9-12.99,1.01-1.42,1.93-2.91,2.74-4.44l.33-.63,.33,.63c.81,1.53,1.73,3.03,2.73,4.43,2.64,3.93,5.91,8.8,5.91,13,0,2.4-.94,4.65-2.63,6.34-1.69,1.69-3.95,2.63-6.34,2.63h0Zm0-25.43c-.74,1.35-1.56,2.66-2.46,3.9-2.56,3.82-5.76,8.59-5.76,12.56,0,2.19,.86,4.26,2.41,5.81,1.55,1.55,3.61,2.41,5.81,2.41,2.19,0,4.26-.86,5.81-2.41,1.55-1.55,2.41-3.61,2.41-5.81,0-3.96-3.2-8.73-5.77-12.56-.89-1.24-1.71-2.55-2.45-3.9Z"/></g></svg>