<?xml version="1.0" encoding="UTF-8"?><svg id="a" xmlns="http://www.w3.org/2000/svg" viewBox="0 0 29 30"><path d="M21.79,12.67H7.21c-.47,0-.86,.39-.86,.87s.39,.87,.86,.87h14.57c.47,0,.87-.39,.87-.87s-.39-.87-.87-.87h0Z" fill="#010101"/><path d="M24.7,2.93h-3.5V.89c0-.48-.39-.87-.87-.87s-.86,.39-.86,.87V2.93H9.55V.89c0-.48-.39-.87-.87-.87s-.87,.39-.87,.87V2.93h-3.5c-2.09,0-3.78,1.7-3.78,3.79V26.19c0,2.09,1.69,3.79,3.78,3.79H24.7c2.09,0,3.78-1.7,3.78-3.79V6.72c0-2.09-1.69-3.79-3.78-3.79h0Zm2.05,23.27c0,1.13-.92,2.05-2.05,2.05H4.3c-1.12,0-2.04-.92-2.04-2.05V6.72c0-1.13,.92-2.05,2.04-2.05h3.5v2.05c0,.47,.39,.86,.87,.86,.48,0,.87-.38,.87-.86v-2.05h9.92v2.05c0,.47,.39,.86,.86,.86s.87-.39,.87-.86v-2.05h3.5c1.13,0,2.05,.92,2.05,2.05V26.2Z" fill="#010101"/><path d="M21.37,21.23h-2.44c-.48,0-.87,.4-.87,.87s.39,.87,.87,.87h2.44c.48,0,.87-.39,.87-.87s-.39-.87-.87-.87Z" fill="#010101"/><path d="M10.07,17.57h-2.44c-.47,0-.86,.4-.86,.87s.39,.87,.86,.87h2.44c.48,0,.87-.39,.87-.87,0-.47-.39-.87-.87-.87Z" fill="#010101"/></svg>