<?xml version="1.0" encoding="UTF-8"?><svg id="a" xmlns="http://www.w3.org/2000/svg" viewBox="0 0 29 30"><path d="M25.31,7.04h-4.43l-.65-2c-.15-.48-.45-.9-.86-1.19-.41-.29-.9-.45-1.4-.45h-6.96c-.5,0-.99,.15-1.4,.45-.41,.3-.71,.71-.86,1.19l-.65,1.99H3.69c-.6,0-1.17,.24-1.6,.66-.42,.42-.66,1-.66,1.6v15.02h0c0,.6,.24,1.17,.66,1.6,.42,.42,1,.66,1.6,.66H25.31c.6,0,1.17-.24,1.6-.66,.42-.42,.66-1,.66-1.6V9.3c0-.6-.24-1.17-.66-1.6s-1-.66-1.6-.66h0Zm1.04,17.29c0,.27-.11,.54-.3,.73-.19,.19-.46,.3-.73,.3H3.69c-.27,0-.54-.11-.73-.3-.19-.19-.3-.46-.3-.73V9.31c0-.27,.11-.54,.3-.73,.19-.19,.46-.3,.73-.3h4.87c.27,0,.5-.17,.58-.42l.79-2.42c.07-.23,.22-.43,.41-.58,.2-.14,.43-.22,.68-.22h6.96c.24,0,.48,.07,.68,.22,.2,.14,.34,.34,.41,.58l.79,2.42c.08,.25,.32,.42,.58,.42h4.87c.27,0,.54,.11,.73,.3,.19,.19,.3,.46,.3,.73v15.02ZM14.5,10.62c-1.64,0-3.22,.65-4.38,1.82-1.16,1.16-1.82,2.74-1.82,4.38s.65,3.22,1.82,4.38c1.16,1.16,2.74,1.82,4.38,1.82s3.22-.65,4.38-1.82c1.16-1.16,1.82-2.74,1.82-4.38,0-1.64-.66-3.22-1.82-4.38-1.16-1.16-2.74-1.82-4.38-1.82h0Zm0,11.18c-1.32,0-2.58-.52-3.52-1.46-.93-.93-1.46-2.2-1.46-3.52,0-1.32,.52-2.58,1.46-3.52,.93-.93,2.2-1.46,3.52-1.46,1.32,0,2.58,.52,3.52,1.46s1.46,2.2,1.46,3.52c0,1.32-.53,2.58-1.46,3.52s-2.2,1.46-3.52,1.46h0Z" fill="#006e74"/></svg>