<?xml version="1.0" encoding="UTF-8"?><svg id="a" xmlns="http://www.w3.org/2000/svg" viewBox="0 0 88.8 88.8"><path d="M44.4,88.8c-11.86,0-23.01-4.62-31.4-13C4.62,67.41,0,56.26,0,44.4S4.62,21.39,13,13C21.39,4.62,32.54,0,44.4,0s23.01,4.62,31.4,13c8.39,8.39,13,19.54,13,31.4,0,2.04-1.66,3.7-3.7,3.7s-3.7-1.66-3.7-3.7c0-20.4-16.6-37-37-37S7.4,24,7.4,44.4s16.6,37,37,37c2.04,0,3.7,1.66,3.7,3.7s-1.66,3.7-3.7,3.7Z"/><path d="M44.4,48.1h-14.8c-2.04,0-3.7-1.66-3.7-3.7s1.66-3.7,3.7-3.7h11.1V22.2c0-2.04,1.66-3.7,3.7-3.7s3.7,1.66,3.7,3.7v22.2c0,2.04-1.66,3.7-3.7,3.7Z"/></svg>