<?xml version="1.0" encoding="UTF-8"?><svg id="a" xmlns="http://www.w3.org/2000/svg" viewBox="0 0 29 30"><path d="M26.88,7.61L17.86,.98c-.7-.51-1.57-.72-2.42-.59-.85,.13-1.62,.59-2.13,1.29L1.42,17.83c-.51,.7-.72,1.57-.59,2.42,.13,.85,.59,1.62,1.29,2.13l9.02,6.63c.7,.51,1.57,.72,2.42,.59,.85-.13,1.62-.59,2.13-1.29L27.58,12.17c.51-.7,.72-1.57,.59-2.42-.13-.85-.59-1.62-1.29-2.13h0ZM14.68,27.58c-.31,.43-.78,.71-1.31,.79-.52,.08-1.06-.05-1.48-.36L2.87,21.37c-.43-.31-.71-.78-.79-1.31-.08-.52,.05-1.06,.36-1.48L14.32,2.42c.31-.43,.78-.71,1.31-.79,.52-.08,1.06,.05,1.48,.36l9.02,6.63c.43,.31,.71,.78,.79,1.31,.08,.52-.05,1.06-.36,1.48L14.68,27.58Z"/><path d="M22.91,7.83l-4.08-3c-.28-.21-.68-.15-.88,.14s-.15,.68,.13,.88l4.08,3c.28,.21,.68,.15,.88-.14s.15-.68-.14-.88Z"/><path d="M10.38,20.61c-.41-.3-.91-.42-1.41-.35-.5,.08-.94,.35-1.24,.75s-.42,.91-.35,1.41c.08,.5,.35,.94,.75,1.24s.91,.42,1.41,.35c.5-.08,.94-.35,1.24-.75s.42-.91,.35-1.41c-.08-.5-.35-.95-.75-1.24Zm-1.5,2.04c-.21-.15-.3-.41-.24-.66,.06-.25,.27-.44,.52-.47,.25-.04,.5,.08,.64,.3,.13,.22,.12,.5-.03,.7-.1,.14-.25,.23-.41,.25s-.34-.02-.47-.12h0Z"/></svg>