<?xml version="1.0" encoding="UTF-8"?><svg id="a" xmlns="http://www.w3.org/2000/svg" viewBox="0 0 29 30"><path d="M14.48,28.11c-1.5,0-3.12-2.97-3.86-7.65,1.2,.12,2.48,.18,3.86,.18v-1.38c-1.36,0-2.71-.07-4.06-.22-.29-2.7-.29-5.42,0-8.11,2.7-.29,5.42-.29,8.11,0,.15,1.35,.22,2.7,.22,4.06h1.39c0-1.38-.06-2.67-.18-3.86,4.68,.74,7.65,2.37,7.65,3.86h0c0,.9-.09,1.79-.27,2.67l1.36,.28h0c.65-3.12,.25-6.38-1.14-9.25-1.39-2.87-3.68-5.21-6.54-6.65C18.17,.61,14.93,.16,11.79,.76c-3.14,.6-5.99,2.21-8.11,4.59C1.56,7.73,.28,10.74,.04,13.93c-.24,3.18,.58,6.35,2.33,9.02,1.75,2.67,4.33,4.69,7.34,5.74,3.01,1.05,6.29,1.08,9.32,.08l-.43-1.32h0c-1.33,.44-2.72,.66-4.12,.66h0Zm12.85-15.81c-1.52-1.16-4.06-2.14-7.55-2.63-.5-3.49-1.47-6.03-2.63-7.55,2.5,.53,4.79,1.77,6.6,3.58,1.81,1.81,3.05,4.1,3.57,6.6h0ZM14.48,1.85c1.5,0,3.12,2.97,3.86,7.65-1.2-.12-2.48-.18-3.86-.18s-2.67,.06-3.86,.18c.73-4.68,2.36-7.64,3.86-7.64h0Zm-2.68,.27c-1.16,1.52-2.14,4.06-2.63,7.55-3.49,.5-6.03,1.47-7.55,2.63,.53-2.5,1.77-4.79,3.57-6.6,1.81-1.81,4.1-3.05,6.6-3.57h0Zm-2.8,8.99c-.12,1.2-.18,2.48-.18,3.86s.06,2.67,.18,3.86c-4.68-.74-7.65-2.37-7.65-3.86s2.96-3.12,7.65-3.86h0ZM1.63,17.66c1.52,1.16,4.06,2.14,7.55,2.63,.5,3.49,1.47,6.03,2.63,7.55-2.5-.53-4.79-1.77-6.6-3.57-1.81-1.81-3.05-4.1-3.57-6.6h0Z" fill="#010101"/><path d="M18.84,18.09l2.55,9.46,1.7-4.33,5.08-.73-9.33-4.4Z" fill="#010101"/></svg>