<?xml version="1.0" encoding="UTF-8"?><svg id="a" xmlns="http://www.w3.org/2000/svg" viewBox="0 0 29 30"><path d="M24.78,29.26H4.22c-1.62,0-2.89-1.27-2.89-2.89V3.94c0-1.62,1.27-2.89,2.89-2.89H24.78c1.62,0,2.89,1.27,2.89,2.89V26.37c0,1.62-1.27,2.89-2.89,2.89ZM4.22,3.05c-.51,0-.89,.38-.89,.89V26.37c0,.51,.38,.89,.89,.89H24.78c.51,0,.89-.38,.89-.89V3.94c0-.51-.38-.89-.89-.89H4.22Z" fill="#010101"/><g><path d="M22.84,6.29c-.15,0-.29,.06-.39,.16l-7.3,7.3c-.37,.37-.94,.37-1.31,0L6.55,6.45h0c-.21-.21-.56-.21-.78,0-.21,.21-.21,.56,0,.78l7.3,7.3c.79,.79,2.08,.79,2.86,0l7.3-7.3c.1-.1,.16-.24,.16-.39s-.06-.29-.16-.39-.24-.16-.39-.16h0Z" fill="#010101" fill-rule="evenodd"/><path d="M14.5,15.49c-.61,0-1.23-.23-1.7-.7L5.51,7.5c-.36-.36-.36-.95,0-1.31,.36-.36,.95-.36,1.31,0l7.3,7.3c.22,.22,.56,.22,.78,0l7.3-7.3c.35-.35,.96-.35,1.31,0,.17,.17,.27,.41,.27,.65s-.1,.48-.27,.65l-7.3,7.3c-.47,.47-1.08,.7-1.7,.7ZM6.16,6.67s-.09,.02-.12,.05c-.07,.07-.07,.18,0,.25l7.3,7.3c.64,.64,1.69,.64,2.33,0l7.3-7.3s.05-.08,.05-.12-.02-.09-.05-.12c-.07-.07-.18-.07-.25,0l-7.3,7.3c-.52,.52-1.32,.52-1.84,0L6.28,6.72s-.08-.05-.12-.05Z" fill="#010101"/></g></svg>