<?xml version="1.0" encoding="UTF-8"?><svg id="a" xmlns="http://www.w3.org/2000/svg" viewBox="0 0 29 30"><path d="M8.55,.52c-.78,0-1.43,.65-1.43,1.43V10.03c0,.26,.21,.47,.47,.46,.26,0,.46-.21,.46-.46V1.95c0-.29,.22-.5,.5-.5H26.16c.29,0,.5,.22,.5,.5V23.99h-3.22c-.78,0-1.43,.64-1.43,1.43v3.22h-5.12c-.26,0-.47,.21-.47,.47,0,.26,.21,.46,.47,.46h6.05c.12,0,.24-.05,.33-.13l4.19-4.19c.09-.09,.14-.2,.14-.33V1.95c0-.78-.65-1.43-1.43-1.43H8.55Zm11.13,5.33c-2.37,0-4.31,1.93-4.31,4.3s1.93,4.31,4.31,4.31,4.31-1.93,4.31-4.31-1.93-4.3-4.31-4.3h0Zm0,.93c1.87,0,3.38,1.51,3.38,3.38s-1.51,3.38-3.38,3.38-3.38-1.51-3.38-3.38,1.51-3.38,3.38-3.38Zm1.56,2.01l-1.71,2.05-1.03-1.05c-.18-.18-.47-.19-.66,0-.18,.18-.19,.47,0,.66l1.39,1.42c.19,.2,.51,.18,.69-.03l2.04-2.45c.16-.2,.14-.49-.06-.66-.22-.18-.52-.11-.66,.06h0Zm-12.78,2.73c-1.74,0-3.18,1.33-3.18,3,0,1.21,.38,2.24,.74,3.46,.33,1.12,.65,2.4,.69,4.16h-.52c-.79,0-1.39,.7-1.39,1.5v.46h-1.64c-.96,0-1.69,.85-1.69,1.83v1.36c0,.26,.21,.47,.47,.46h.43v.97c0,.49,.42,.87,.9,.87H13.67c.48,0,.9-.38,.9-.87v-.97h.43c.26,0,.46-.21,.46-.46v-1.36c0-.98-.73-1.83-1.69-1.83h-1.53v-.46c0-.8-.6-1.5-1.39-1.5h-.63c.05-1.76,.36-3.04,.69-4.16,.35-1.21,.74-2.25,.74-3.46,0-1.67-1.45-3-3.18-3h0Zm0,.93c1.27,0,2.25,.94,2.25,2.07,0,1.01-.34,1.95-.7,3.2-.33,1.13-.61,2.61-.67,4.42h-1.77c-.06-1.82-.34-3.3-.67-4.42-.36-1.24-.7-2.19-.7-3.2,0-1.13,.99-2.07,2.25-2.07h0Zm4.71,5.95c-.26,0-.48,.21-.48,.48,0,.26,.21,.48,.48,.48,.26,0,.48-.21,.48-.48,0-.26-.21-.48-.48-.48Zm1.86,.01c-.26,0-.46,.21-.46,.47,0,.26,.21,.46,.46,.46h9.3c.26,0,.47-.21,.47-.46,0-.26-.21-.47-.47-.47H15.03Zm.93,3.38c-.26,0-.48,.21-.48,.48,0,.26,.21,.48,.48,.48,.26,0,.48-.21,.48-.48,0-.26-.21-.48-.48-.48Zm1.86,0c-.26,0-.47,.21-.47,.47,0,.26,.21,.46,.47,.46h6.51c.26,0,.47-.21,.47-.46,0-.26-.21-.47-.47-.47h-6.51Zm-11.63,1.27h4.65c.24,0,.46,.22,.46,.57v.46h-.66c-.26,0-.47,.21-.47,.46,0,.26,.21,.47,.47,.47h3.12c.4,0,.76,.37,.76,.9v.89H2.4v-.89c0-.53,.36-.9,.76-.9h3.23c.26,0,.46-.21,.46-.47,0-.26-.21-.46-.46-.46h-.66v-.46c0-.35,.23-.57,.46-.57h0Zm17.25,1.86h3.03l-3.53,3.53v-3.03c0-.29,.22-.5,.5-.5h0ZM3.29,27.73H13.64v.91H3.29v-.91Z"/></svg>