<svg id="a" xmlns="http://www.w3.org/2000/svg" viewBox="0 0 29 30"><path d="M24,28.91H5.25A4.32,4.32,0,0,1,.94,24.6V5.9A4.31,4.31,0,0,1,5.25,1.59H23.9a4.34,4.34,0,0,1,4.35,4.3V24.6A4.31,4.31,0,0,1,24,28.91ZM5.25,2.61A3.3,3.3,0,0,0,2,5.9V24.6a3.29,3.29,0,0,0,3.29,3.28H24a3.28,3.28,0,0,0,3.28-3.28V5.9A3.33,3.33,0,0,0,23.9,2.61Z"/><path d="M18.92,20.59l-4.15-2.13-4.15,2.13.78-4.49L8,12.94l4.69-.68,2.07-4,2.07,4,4.69.68-3.4,3.16Zm-8.64-6.94,2.23,2.08-.52,3,2.78-1.43,2.78,1.43-.52-3,2.23-2.08-3.09-.45-1.4-2.72-1.4,2.72Z"/></svg>