<?xml version="1.0" encoding="UTF-8"?><svg id="a" xmlns="http://www.w3.org/2000/svg" viewBox="0 0 40.78 20.9"><path d="M20.58,4.43c-4.09,0-7.44,3.33-7.44,7.44s3.33,7.44,7.44,7.44,7.44-3.33,7.44-7.44-3.33-7.44-7.44-7.44Zm0,11.39c-2.18,0-3.95-1.77-3.95-3.95s1.77-3.95,3.95-3.95,3.95,1.77,3.95,3.95-1.77,3.95-3.95,3.95Zm19.86-4.96C35.54,3.95,28.3,0,20.58,0S5.62,3.95,.72,10.85l-.72,1.01,.72,1.01c2.31,3.25,5.24,5.93,8.51,7.8,.27,.15,.56,.22,.86,.22,.6,0,1.19-.31,1.52-.87,.48-.83,.18-1.9-.65-2.38-2.47-1.42-4.75-3.4-6.64-5.78C8.52,6.54,14.4,3.5,20.59,3.5c6.58,0,12.78,3.43,17.02,9.39,.56,.79,1.64,.97,2.43,.41,.79-.56,.97-1.64,.41-2.42h0v-.03Z" fill="#fff"/></svg>