<?xml version="1.0" encoding="UTF-8"?><svg id="a" xmlns="http://www.w3.org/2000/svg" viewBox="0 0 29 30"><path d="M17.15,23.27c2.53,0,4.98-.86,6.95-2.45,1.97-1.59,3.33-3.81,3.85-6.28,.53-2.47,.18-5.05-.97-7.31-1.15-2.25-3.04-4.04-5.35-5.07-2.31-1.03-4.91-1.22-7.35-.56-2.44,.66-4.58,2.14-6.06,4.19s-2.21,4.55-2.07,7.07c.14,2.53,1.15,4.93,2.85,6.8l-3.53,3.53-3.85-3.85c-.1-.1-.23-.16-.37-.17-.14,0-.28,.05-.38,.15-.1,.1-.16,.24-.15,.38,0,.14,.06,.28,.17,.38l3.85,3.85-3.85,3.85H.88c-.1,.1-.16,.23-.17,.37s.05,.28,.15,.38c.1,.1,.24,.16,.38,.15s.28-.06,.37-.17l3.85-3.85,3.85,3.85h0c.21,.19,.53,.19,.73-.01s.21-.52,.01-.73l-3.85-3.85,3.53-3.53c2.02,1.85,4.67,2.87,7.41,2.87h0Zm0-21c2.64,0,5.18,1.05,7.05,2.92,1.87,1.87,2.92,4.4,2.92,7.05,0,2.64-1.05,5.18-2.91,7.05-1.87,1.87-4.4,2.92-7.04,2.92-2.64,0-5.18-1.04-7.05-2.91-1.87-1.87-2.92-4.4-2.93-7.04,0-2.64,1.05-5.18,2.92-7.05,1.87-1.87,4.4-2.92,7.05-2.92h0Z" fill="#010101"/><path d="M1.23,29.07c-.23,0-.46-.09-.63-.26-.17-.17-.27-.41-.26-.65,0-.24,.11-.48,.29-.64l3.57-3.58-3.58-3.58c-.17-.16-.27-.39-.28-.63,0-.24,.09-.48,.26-.65,.17-.17,.4-.25,.65-.26,.24,0,.48,.11,.64,.29l3.58,3.57,3.02-3.02c-1.61-1.89-2.57-4.28-2.71-6.76-.15-2.6,.61-5.2,2.14-7.32,1.53-2.11,3.75-3.65,6.27-4.33,2.51-.68,5.21-.47,7.6,.58,2.38,1.06,4.35,2.92,5.53,5.24,1.19,2.32,1.54,5.01,1,7.56-.54,2.55-1.96,4.86-3.98,6.5-2.03,1.64-4.58,2.54-7.19,2.54h0c-2.72,0-5.33-.97-7.39-2.73l-3.02,3.02,3.58,3.58c.34,.37,.33,.91-.01,1.26-.35,.35-.89,.35-1.25,.02l-3.59-3.59-3.58,3.58c-.16,.17-.39,.27-.63,.28h-.02Zm0-9.52s-.08,.02-.11,.04c-.03,.03-.04,.07-.04,.11,0,.04,.02,.08,.05,.11l4.12,4.12L1.14,28.05s-.06,.08-.06,.12c0,.04,.02,.08,.04,.11,.03,.03,.07,.03,.11,.04,.04,0,.08-.02,.11-.05l4.12-4.13,4.12,4.11c.05,.05,.14,.05,.2-.01,.06-.06,.06-.15,0-.21l-4.11-4.11,4.05-4.05,.26,.24c1.96,1.79,4.5,2.77,7.15,2.77h.02c2.43,0,4.81-.84,6.7-2.37,1.89-1.53,3.22-3.69,3.72-6.07,.51-2.38,.17-4.89-.93-7.06-1.11-2.17-2.94-3.91-5.17-4.89-2.23-.99-4.75-1.18-7.1-.54s-4.43,2.07-5.86,4.05c-1.43,1.97-2.14,4.4-2,6.83,.14,2.43,1.11,4.76,2.75,6.57l.24,.26-4.05,4.05L1.35,19.61s-.07-.05-.12-.06Zm15.91,3.03c-2.76,0-5.35-1.07-7.3-3.02-1.96-1.95-3.03-4.54-3.04-7.31,0-2.76,1.08-5.36,3.03-7.31,1.86-1.86,4.31-2.93,6.94-3.03h0l.38-.02c2.76,0,5.36,1.08,7.31,3.03,1.95,1.95,3.03,4.55,3.03,7.31,0,2.76-1.07,5.36-3.02,7.31-1.95,1.96-4.55,3.03-7.31,3.03h-.01Zm.38-19.93h-.37c-2.56,.01-4.97,1.01-6.78,2.82-1.81,1.81-2.81,4.22-2.81,6.78,0,2.56,1,4.97,2.82,6.78,1.81,1.81,4.22,2.8,6.77,2.8h.01c2.56,0,4.97-1,6.78-2.81,1.81-1.81,2.81-4.22,2.8-6.78,0-2.56-1-4.97-2.81-6.78-1.72-1.72-3.99-2.71-6.41-2.8Z"/></svg>