<?xml version="1.0" encoding="UTF-8"?><svg id="a" xmlns="http://www.w3.org/2000/svg" viewBox="0 0 29 30"><path d="M14.48,1.21c-.15,0-.29,.05-.42,.14L.65,11.94c-.31,.25-.35,.71-.12,1,.23,.29,.71,.34,1,.11L14.5,2.82l12.97,10.23c.29,.23,.76,.18,.99-.11,.23-.29,.2-.77-.11-1L14.94,1.35c-.16-.1-.32-.15-.46-.14h0ZM5.68,10.7l-1.41,1.11V28.09h0c0,.39,.32,.71,.71,.71h6.35c.39,0,.71-.32,.71-.71v-11.35h4.94v11.35h0c0,.39,.32,.71,.71,.71h6.35c.39,0,.71-.32,.71-.71V11.82l-1.41-1.11V27.38h-4.94v-11.35h0c0-.39-.32-.71-.71-.71h-6.35c-.39,0-.71,.32-.71,.71v11.35H5.68V10.7Z"/></svg>