<?xml version="1.0" encoding="utf-8"?>
<!-- Generator: Adobe Illustrator 26.2.1, SVG Export Plug-In . SVG Version: 6.00 Build 0)  -->
<svg version="1.1" id="a" xmlns="http://www.w3.org/2000/svg" xmlns:xlink="http://www.w3.org/1999/xlink" x="0px" y="0px"
	 viewBox="0 0 36.3 32" style="enable-background:new 0 0 36.3 32;" xml:space="preserve">
<path d="M17.1,11.7v9.4c0,0.7,0.4,1.1,1.1,1.1s1.1-0.4,1.1-1.1v-9.4c0-0.7-0.4-1.1-1.1-1.1S17.1,11.3,17.1,11.7z"/>
<g>
	<path d="M34.2,32H2c-0.9,0-1.3-0.5-1.6-0.7L0.3,31c-0.4-0.8-0.4-1.6,0.1-2.1L16.6,0.8l0.1-0.1C16.9,0.5,17.4,0,18.2,0
		c0.9,0,1.3,0.5,1.6,0.7L20,0.9l16,28c0.4,0.9,0.4,1.8-0.2,2.3C35.5,31.5,35.1,32,34.2,32z M2,30C2,30,2,30,2,30l32.2,0c0,0,0,0,0,0
		c0,0,0,0,0-0.1L18.3,2.1c0,0-0.1-0.1-0.1-0.1c0,0-0.1,0-0.1,0.1L2,30z"/>
</g>
<circle cx="18.2" cy="26.4" r="1.3"/>
</svg>
