<svg enable-background="new 0 0 34 34" viewBox="0 0 34 34" xmlns="http://www.w3.org/2000/svg"><g fill="#4d4d4d"><path d="m11.3 19.5c-2.9 0-5.4.1-8 .1-2.2 0-3.4-.9-3.2-2.6.2-2 1.5-2.5 3.2-2.5 2.6 0 5.2 0 8.1-.1 0-1.4-.1-2.6 0-3.9.1-1.8.7-2.3 2-1.3 2.9 2.1 5.7 4.3 8.6 6.5.9.7.9 1.5 0 2.2-2.9 2.3-5.7 4.6-8.6 6.8-1.2.9-1.8.3-1.9-1.1-.2-1.2-.2-2.5-.2-4.1z"/><path d="m16.1 34c-6.7 0-12.8-3.5-15.9-9.1-.3-.6-.1-1.3.6-1.7.6-.3 1.4-.1 1.8.5 2.7 4.8 7.9 7.8 13.6 7.8 8.5 0 15.3-6.5 15.3-14.5s-7-14.5-15.4-14.5c-5.4 0-10.5 2.8-13.3 7.2-.4.6-1.2.8-1.8.4-.6-.3-.8-1.1-.5-1.6 1.6-2.6 3.8-4.7 6.5-6.2s5.9-2.3 9.1-2.3c4.8 0 9.3 1.8 12.7 5s5.2 7.5 5.2 12-1.9 8.8-5.3 12c-3.3 3.2-7.9 5-12.6 5z"/></g></svg>