<?xml version="1.0" encoding="UTF-8"?><svg id="a" xmlns="http://www.w3.org/2000/svg" viewBox="0 0 162.5 75.27"><g><path d="M56.45,42.57c-1.28-1.63-1.65-3.85-.97-5.81l6.61-18.95,9.51,11.9c-3.42-14.37-16.34-25.06-31.76-25.06-18.03,0-32.65,14.61-32.65,32.65s14.62,32.66,32.66,32.66c7.92,0,15.18-2.83,20.83-7.53l-17.23,2.93-14.04-17.66-.41-.7,20.1-3.69c1.34-.25,2.71,.28,3.59,1.38l11.52,14.34c.93-1.04,1.8-2.14,2.6-3.3l-10.35-13.16h0Z" fill="#089891"/><path d="M49.09,43.31l-20.1,3.69,.41,.7,14.04,17.66,17.23-2.93c1.26-1.04,2.44-2.18,3.52-3.39l-11.52-14.34c-.88-1.1-2.26-1.63-3.59-1.38h.01Z" fill="#fff"/></g><path d="M35.73,19.99l22.71-4.01-6.97,19.91c-.59,1.68-1.98,2.89-3.67,3.19l-19.85,3.51,7.78-22.59h0Z" fill="#fff"/><path d="M0,56.2c12.87,4.82,19.36,13.78,31.18,16.51,9.14,2.11,14.6-.51,16.66-1.68C26.92,84.54,14.55,61.96,0,56.2Z" fill="#089891"/><path d="M80.68,27.8c-11.11-7.91-14.96-18.02-25.61-23.69C46.83-.27,40.86,.74,38.57,1.29c23.78-7.15,29.64,17.27,42.11,26.51Z" fill="#089891"/><g><g><path d="M70.09,39.25l-1.13-.29c-.26-.07-.52,.07-.62,.31-.19,.45-.45,.79-.78,1.03-.43,.31-.95,.46-1.55,.46-.82,0-1.48-.24-1.99-.73-.51-.49-.77-1.3-.77-2.45,0-1.08,.26-1.86,.78-2.35,.52-.48,1.19-.72,2.03-.72,.6,0,1.11,.14,1.53,.41,.3,.2,.53,.44,.68,.74,.11,.22,.34,.34,.58,.29l1.15-.22c.35-.07,.55-.45,.38-.77-.23-.42-.52-.77-.87-1.03-.86-.66-1.97-.99-3.35-.99-1.57,0-2.84,.42-3.8,1.25-.96,.84-1.45,2.01-1.45,3.52,0,1.43,.48,2.56,1.44,3.38,.96,.82,2.18,1.24,3.67,1.24,1.2,0,2.2-.24,2.98-.72,.62-.38,1.1-.92,1.44-1.61,.15-.3-.03-.67-.35-.75Z" fill="#089891"/><path d="M81.57,34.18c-.99-.83-2.32-1.25-3.97-1.25-.91,0-1.72,.12-2.42,.36-.53,.18-1.01,.45-1.45,.82-.44,.37-.79,.78-1.04,1.25-.34,.63-.51,1.4-.51,2.33,0,1.45,.49,2.58,1.48,3.4,.98,.82,2.31,1.24,3.98,1.24s2.97-.41,3.95-1.24c.99-.83,1.48-1.98,1.48-3.44s-.5-2.63-1.49-3.46Zm-1.72,5.79c-.58,.53-1.32,.79-2.22,.79s-1.65-.26-2.24-.8c-.59-.53-.88-1.31-.88-2.34s.29-1.83,.86-2.34c.57-.52,1.32-.78,2.26-.78s1.68,.26,2.25,.77c.56,.51,.85,1.29,.85,2.33s-.29,1.84-.87,2.37Z" fill="#089891"/><path d="M92.26,40.65h-4.56c-.3,0-.54-.24-.54-.54v-6.41c0-.3-.24-.54-.54-.54h-1.19c-.3,0-.54,.24-.54,.54v7.94c0,.3,.24,.54,.54,.54h6.83c.3,0,.54-.24,.54-.54v-.46c0-.3-.24-.54-.54-.54Z" fill="#089891"/><path d="M103.44,35.58c-.24-.58-.6-1.07-1.07-1.47-.47-.4-1.03-.68-1.69-.84-.49-.12-1.2-.17-2.14-.17h-3.61c-.3,0-.54,.24-.54,.54v8.01c0,.3,.24,.54,.54,.54h3.73c.84,0,1.51-.06,2.01-.19,.67-.17,1.2-.42,1.59-.73,.52-.41,.92-.94,1.2-1.6,.23-.54,.34-1.19,.34-1.93,0-.85-.12-1.57-.37-2.15Zm-2.2,3.73c-.15,.41-.35,.7-.59,.88-.24,.18-.55,.3-.91,.38-.28,.06-.74,.09-1.37,.09h-1.16c-.3,0-.54-.24-.54-.54v-4.94c0-.3,.24-.54,.54-.54h.48c.92,0,1.54,.03,1.86,.09,.42,.07,.77,.22,1.05,.43,.28,.21,.49,.5,.64,.88,.15,.38,.23,.91,.23,1.62s-.08,1.26-.23,1.66Z" fill="#089891"/></g><g><path d="M117.68,33.09h-7.82c-.3,0-.54,.24-.54,.54s.24,.54,.54,.54h2.63c.3,0,.54,.24,.54,.54v6.94c0,.3,.24,.54,.54,.54h.41c.3,0,.54-.24,.54-.54v-6.94c0-.3,.24-.54,.54-.54h2.64c.3,0,.54-.24,.54-.54s-.24-.54-.54-.54Z"/><path d="M127.7,39.7c-.39-.48-.8-.89-1.23-1.21-.2-.15-.5-.3-.9-.45,1.08-.12,1.87-.4,2.39-.84,.52-.44,.77-.99,.77-1.63,0-.5-.16-.96-.47-1.37-.31-.41-.73-.7-1.25-.86-.52-.16-1.28-.24-2.28-.24h-4.44c-.3,0-.54,.24-.54,.54v8.01c0,.3,.24,.54,.54,.54h.41c.3,0,.54-.24,.54-.54v-2.96c0-.3,.24-.54,.54-.54h1.19c.38,0,.66,.01,.83,.04,.23,.05,.46,.13,.68,.24,.22,.12,.47,.32,.75,.61,.28,.29,.64,.71,1.07,1.25l1.32,1.68c.1,.13,.26,.2,.42,.2h.5c.45,0,.7-.52,.42-.87l-1.27-1.6Zm-3.26-2.6h-2.66c-.3,0-.54-.24-.54-.54v-1.93c0-.3,.24-.54,.54-.54h3.02c.83,0,1.44,.14,1.83,.41,.39,.28,.58,.63,.58,1.06,0,.29-.1,.56-.3,.81-.2,.25-.49,.43-.87,.55-.38,.11-.91,.17-1.59,.17Z"/><path d="M139.38,33.09h-.41c-.3,0-.54,.24-.54,.54v4.71c0,1.14-.23,1.91-.7,2.31-.46,.4-1.24,.6-2.33,.6-.64,0-1.18-.1-1.62-.3-.44-.2-.75-.49-.93-.86-.18-.37-.27-.96-.27-1.74v-4.71c0-.3-.24-.54-.54-.54h-.41c-.3,0-.54,.24-.54,.54v4.71c0,.96,.14,1.72,.43,2.28,.29,.56,.76,.98,1.43,1.27,.67,.29,1.53,.44,2.58,.44s1.96-.17,2.62-.5,1.13-.77,1.38-1.31c.25-.54,.38-1.26,.38-2.17v-4.71c0-.3-.24-.54-.54-.54Z"/><path d="M149.9,33.09h-7.82c-.3,0-.54,.24-.54,.54s.24,.54,.54,.54h2.63c.3,0,.54,.24,.54,.54v6.94c0,.3,.24,.54,.54,.54h.41c.3,0,.54-.24,.54-.54v-6.94c0-.3,.24-.54,.54-.54h2.64c.3,0,.54-.24,.54-.54s-.24-.54-.54-.54Z"/><path d="M160.27,33.09h-.41c-.3,0-.54,.24-.54,.54v2.66c0,.3-.24,.54-.54,.54h-4.76c-.3,0-.54-.24-.54-.54v-2.66c0-.3-.24-.54-.54-.54h-.41c-.3,0-.54,.24-.54,.54v8.01c0,.3,.24,.54,.54,.54h.41c.3,0,.54-.24,.54-.54v-3.21c0-.3,.24-.54,.54-.54h4.76c.3,0,.54,.24,.54,.54v3.21c0,.3,.24,.54,.54,.54h.41c.3,0,.54-.24,.54-.54v-8.01c0-.3-.24-.54-.54-.54Z"/></g></g></svg>