<?xml version="1.0" encoding="UTF-8"?><svg xmlns="http://www.w3.org/2000/svg" viewBox="0 0 292.43 74.18"><g isolation="isolate"><g id="a"><g><g><path d="M96.56,51.47V21.29h6.09v30.18h-6.09Z" fill="#006e74"/><path d="M108.43,21.29h11.14c2.51,0,4.43,.19,5.74,.58,1.77,.52,3.29,1.45,4.55,2.78,1.26,1.33,2.22,2.96,2.88,4.89s.99,4.31,.99,7.13c0,2.48-.31,4.62-.93,6.42-.75,2.2-1.83,3.97-3.23,5.33-1.06,1.03-2.48,1.83-4.28,2.41-1.34,.43-3.14,.64-5.39,.64h-11.47V21.29Zm6.09,5.1v19.99h4.55c1.7,0,2.93-.1,3.68-.29,.99-.25,1.81-.67,2.46-1.26s1.18-1.56,1.6-2.91c.41-1.35,.62-3.19,.62-5.53s-.21-4.12-.62-5.37-.99-2.22-1.73-2.92-1.68-1.17-2.82-1.42c-.85-.19-2.52-.29-5-.29h-2.74Z" fill="#006e74"/><path d="M138.9,51.47V21.29h22.37v5.1h-16.28v6.69h15.15v5.08h-15.15v8.21h16.86v5.08h-22.95Z" fill="#006e74"/><path d="M186.32,40.37l5.91,1.87c-.91,3.29-2.41,5.74-4.52,7.34-2.11,1.6-4.78,2.4-8.02,2.4-4.01,0-7.3-1.37-9.88-4.11s-3.87-6.48-3.87-11.23c0-5.02,1.3-8.92,3.89-11.7s6-4.17,10.23-4.17c3.69,0,6.69,1.09,9,3.27,1.37,1.29,2.4,3.14,3.09,5.56l-6.03,1.44c-.36-1.56-1.1-2.8-2.23-3.71s-2.51-1.36-4.13-1.36c-2.24,0-4.05,.8-5.44,2.41s-2.09,4.21-2.09,7.8c0,3.81,.69,6.53,2.06,8.15s3.16,2.43,5.35,2.43c1.62,0,3.01-.51,4.18-1.54s2-2.65,2.51-4.86Z" fill="#006e74"/><path d="M206.91,51.47V21.29h16.69v3.56h-13.42v9.35h11.61v3.56h-11.61v13.71h-3.27Z"/><path d="M223.19,51.47l9.54-30.18h3.5l10.13,30.18h-3.75l-2.88-9.14h-10.41l-2.69,9.14h-3.45Zm7.1-12.39h8.43l-2.57-8.36c-.8-2.57-1.38-4.65-1.75-6.26-.32,1.93-.77,3.86-1.36,5.76l-2.75,8.85Z"/><path d="M266.52,40.89l3.29,1.01c-.73,3.39-2,5.92-3.82,7.59-1.82,1.67-4.03,2.5-6.64,2.5-2.29,0-4.25-.56-5.88-1.68-1.63-1.12-2.96-2.91-3.99-5.39-1.04-2.47-1.55-5.39-1.55-8.75s.52-6.13,1.56-8.44c1.04-2.3,2.44-4.04,4.21-5.21s3.75-1.76,5.93-1.76c2.39,0,4.44,.74,6.16,2.23s2.92,3.67,3.61,6.54l-3.21,.93c-1.1-4.19-3.31-6.28-6.62-6.28-1.65,0-3.08,.42-4.29,1.27s-2.17,2.16-2.9,3.94c-.72,1.79-1.08,4.04-1.08,6.78,0,4.13,.73,7.23,2.18,9.3,1.45,2.07,3.39,3.1,5.8,3.1,1.78,0,3.32-.63,4.62-1.9s2.16-3.19,2.6-5.77Z"/><path d="M273.97,51.47V21.29h17.89v3.56h-14.61v9.22h13.69v3.56h-13.69v10.27h15.19v3.56h-18.46Z"/></g><g><polygon points="23.83 43.67 18.65 38.49 21.1 40.94 23.83 43.67" fill="#006e74"/><path d="M40.94,48.28l-3.12,3.13-21.47,21.48c1.73,1.73,4.52,1.73,6.25,0l15.23-15.22,3.12-3.13,3.13-3.13,7.34-7.34-1.9-1.9-1.22-1.22-7.34,7.34Z" fill="#006e74" mix-blend-mode="multiply"/><path d="M74.34,14.88l-19.81,19.81,3.13,3.13,16.69-16.69c1.73-1.73,1.73-4.53,0-6.25Z" fill="#006e74" mix-blend-mode="multiply"/><path d="M40.94,48.28l7.34-7.34-1.7-1.7-1.42-1.42-7.34,7.34-3.13,3.12-3.13,3.13h0l-15.22,15.22c-1.73,1.73-1.73,4.53,0,6.25l21.47-21.48,3.12-3.13Z" fill="#006e74"/><path d="M74.34,14.88c-1.73-1.73-4.52-1.73-6.25,0l-16.69,16.69,3.12,3.12,19.81-19.81Z" fill="#006e74"/><path d="M21.1,40.94L2.75,59.29c-1.73-1.73-1.73-4.52,0-6.25l15.23-15.22,.67,.67,2.46,2.46Z" fill="#006e74" mix-blend-mode="multiply"/><path d="M34.69,27.36l3.12-3.13,3.13-3.12L60.75,1.3c-.86-.86-1.99-1.3-3.13-1.3s-2.26,.43-3.12,1.3l-16.69,16.69-3.12,3.13-3.13,3.12-7.34,7.34,3.13,3.13,7.34-7.34Z" fill="#006e74" mix-blend-mode="multiply"/><path d="M21.1,40.94L2.75,59.29c1.73,1.73,4.53,1.73,6.25,0l15.22-15.22-.4-.4-2.73-2.73Z" fill="#006e74"/><path d="M37.82,24.23l-3.12,3.13-7.34,7.34,3.13,3.13,7.34-7.34,3.12-3.13,3.13-3.12L60.75,7.54c1.73-1.73,1.73-4.52,0-6.25l-19.81,19.81-3.13,3.12Z" fill="#006e74"/><path d="M21.11,34.7L1.29,14.88c-1.73,1.73-1.73,4.53,0,6.25l16.69,16.69h0l.67,.67,5.18,5.18,.4,.4h0l7.34,7.34,3.13-3.13-13.59-13.59Z" fill="#006e74" mix-blend-mode="multiply"/><path d="M37.82,57.66l15.22,15.22c1.73,1.73,4.52,1.73,6.25,0l-18.35-18.35-3.12,3.13Z" fill="#006e74" mix-blend-mode="multiply"/><path d="M34.69,48.28l3.13-3.12-7.34-7.34-3.13-3.13-3.13-3.13L7.54,14.88c-1.73-1.73-4.52-1.73-6.25,0l19.81,19.81,13.59,13.59Z" fill="#006e74"/><path d="M59.29,72.88c1.73-1.73,1.73-4.53,0-6.25l-15.22-15.22-3.13,3.13,18.35,18.35Z" fill="#006e74"/><path d="M51.41,31.57l-7.34-7.34-3.13,3.12,10.47,10.47,3.13,3.13,18.35,18.35c.86-.86,1.29-1.99,1.29-3.12s-.43-2.26-1.29-3.13l-15.22-15.22-3.13-3.13-3.12-3.12Z" fill="#006e74"/><path d="M37.82,17.98L21.13,1.3c-1.73-1.73-4.52-1.73-6.25,0l19.81,19.81,3.12-3.13Z" fill="#006e74"/><path d="M51.41,37.82l-10.47-10.47-3.12,3.13,8.77,8.77,1.7,1.7,1.22,1.22,17.13,17.13c1.73,1.73,4.52,1.73,6.25,0l-18.35-18.35-3.13-3.13Z" fill="#006e74" mix-blend-mode="multiply"/><path d="M14.88,1.3c-1.73,1.73-1.73,4.52,0,6.25L31.57,24.23l3.13-3.12L14.88,1.3Z" fill="#006e74" mix-blend-mode="multiply"/></g></g></g></g></svg>