<?xml version="1.0" encoding="UTF-8"?><svg id="a" xmlns="http://www.w3.org/2000/svg" viewBox="0 0 29 30"><path d="M23.16,11.24h-2.02V7.04c0-3.66-3-6.66-6.66-6.66S7.82,3.38,7.82,7.04v4.21h-2.02c-1.4,0-2.53,1.13-2.53,2.53v13.32c0,1.4,1.13,2.53,2.53,2.53H23.2c1.4,0,2.53-1.13,2.53-2.53V13.77c-.04-1.4-1.17-2.53-2.57-2.53h0ZM8.99,7.04c0-3.04,2.45-5.49,5.49-5.49s5.49,2.45,5.49,5.49v4.21H8.99V7.04Zm15.54,20.05c0,.74-.62,1.36-1.36,1.36H5.8c-.74,0-1.36-.62-1.36-1.36V13.77c0-.74,.62-1.36,1.36-1.36H23.2c.74,0,1.36,.62,1.36,1.36v13.32h-.04Z" fill="#010101"/></svg>