<?xml version="1.0" encoding="UTF-8"?><svg id="a" xmlns="http://www.w3.org/2000/svg" viewBox="0 0 29 30"><path d="M14.53,25.12c-.25,0-.49-.1-.68-.27-.13-.09-.19-.22-.22-.3v-.03l-.02-.02v-.03c-.06-.15-.06-.27-.06-.38,0-.27,.11-.52,.3-.72h0c.21-.21,.5-.32,.79-.3,.25,.02,.48,.13,.63,.32,.18,.19,.28,.44,.28,.7,0,.19-.07,.35-.1,.43-.03,.07-.08,.16-.17,.26-.09,.13-.22,.19-.3,.22h-.01c-.18,.12-.33,.12-.44,.12Zm-.18-.88l.02,.02s.1,.07,.16,.07h.05l.02-.02s.03-.02,.05-.02h.01l.02-.03s.03-.03,.05-.09c.01-.03,.02-.06,.02-.08,0-.06-.03-.11-.07-.16l-.02-.02-.02-.02s-.05-.03-.07-.03c-.05,0-.12,.01-.18,.07h0s-.07,.1-.07,.16c0,.07,0,.09,0,.11v.02h.01Zm.35,.04h0Zm-.34,0h0Zm4.27,.85c-.25,0-.49-.1-.68-.27-.13-.09-.19-.22-.22-.3v-.03l-.02-.02v-.03c-.06-.15-.06-.27-.06-.38v-.13c0-.08,.02-.14,.03-.19v-.1l.09-.09v-.02c.05-.09,.12-.16,.15-.2,.2-.2,.48-.31,.76-.3,.27,0,.51,.12,.68,.31,.19,.19,.29,.45,.29,.71s-.11,.52-.3,.72c-.2,.2-.45,.3-.72,.3Zm-.18-.88l.02,.02c.1,.1,.23,.1,.32,0,.05-.05,.07-.1,.07-.16s-.03-.11-.07-.16l-.02-.02s-.09-.05-.12-.05c-.04,0-.09,.01-.13,.03v.02l-.09,.09h0v.1c0,.07,0,.09,0,.11v.02h.01Zm-8.12,.88c-.25,0-.49-.1-.68-.27-.13-.09-.19-.22-.22-.3v-.03l-.02-.02v-.03c-.06-.15-.06-.27-.06-.38,0-.21,.07-.43,.21-.67l.11-.19h.1s.04-.03,.06-.04l.09-.09h.12s.09-.03,.17-.03h.25c.08,0,.14,.02,.19,.03h.1l.11,.11s.02,.02,.03,.03c.07,.04,.12,.09,.16,.12,.2,.2,.3,.45,.3,.72,0,.19-.07,.35-.1,.43-.03,.07-.08,.16-.17,.26-.09,.13-.22,.19-.3,.22h-.01c-.18,.12-.33,.12-.44,.12Zm-.18-.88l.02,.02s.1,.07,.16,.07h.05l.02-.02s.03-.02,.05-.02h.01l.02-.03s.03-.03,.05-.09c.01-.03,.02-.06,.02-.08,0-.05-.02-.1-.06-.14-.06-.02-.1-.06-.13-.09h-.14s-.03,.04-.05,.05c-.04,.07-.05,.13-.05,.18,0,.07,0,.09,0,.11v.02h.01Zm.01,.04h0Zm.52-1.06h0Zm8.97-1.25H9.48c-.39,0-.76-.23-.93-.58-.17-.37-.11-.79,.18-1.14,.15-.19,.39-.3,.63-.3h.04v-.85c0-.27,.11-.52,.3-.72l3.36-3.36-3.36-3.36c-.18-.18-.27-.4-.34-.59l-.02-.06v-.93c-.5-.08-.89-.51-.89-1.02,0-.58,.73-.9,.88-.96l.07-.03h10.2l.07,.03c.15,.06,.88,.38,.88,.96,0,.53-.42,.98-.94,1.03v.86c0,.27-.11,.52-.3,.72l-3.36,3.36,3.36,3.36c.19,.19,.28,.54,.3,.64v.93c.37,.03,.7,.25,.85,.58,.17,.37,.11,.79-.18,1.14-.15,.19-.39,.3-.63,.3Zm-10.28-1.23s-.02,0-.03,.01c-.06,.08-.13,.19-.07,.3,.04,.08,.12,.13,.22,.13h10.16s.02,0,.03-.01c.06-.08,.13-.19,.07-.3-.04-.08-.12-.13-.22-.13h-.71v-1.59c-.02-.08-.06-.18-.08-.21l-3.91-3.91,3.92-3.92s.07-.1,.07-.16v-1.64h.7c.13,0,.23-.11,.24-.23-.04-.06-.18-.16-.32-.22H9.56c-.14,.07-.28,.16-.32,.22,.01,.12,.11,.22,.24,.23h.64v1.57c.04,.11,.08,.18,.13,.23l3.92,3.92-3.92,3.92s-.07,.1-.07,.16h0v1.64h-.82Z"/><path d="M28.63,15c0,7.79-6.34,14.13-14.13,14.13S.37,22.79,.37,15C.37,10.73,2.35,6.68,5.62,4.01h-1.79c-.35,0-.63-.28-.63-.63s.28-.63,.63-.61h3.77c.19-.02,.35,.07,.47,.2,.03,.03,.03,.06,.04,.09v.03s.06,.03,.06,.03v.03l.06,.13v3.86c-.03,.35-.31,.63-.66,.63s-.63-.28-.63-.63v-2.57C3.64,6.96,1.63,10.89,1.63,15c0,7.1,5.78,12.87,12.87,12.87s12.87-5.78,12.87-12.87S21.6,2.13,14.5,2.13c-.35,0-.63-.28-.63-.63s.28-.63,.63-.63c7.79,0,14.13,6.34,14.13,14.13h0Z"/></svg>