<?xml version="1.0" encoding="UTF-8"?><svg id="a" xmlns="http://www.w3.org/2000/svg" viewBox="0 0 29 30"><path d="M23.66,8.53c0,2.08-1.69,3.77-3.77,3.77s-3.77-1.69-3.77-3.77,1.69-3.77,3.77-3.77,3.77,1.69,3.77,3.77" fill="none" stroke="#000" stroke-miterlimit="10"/><path d="M27.43,18.9c0-2.26-3.38-4.1-7.54-4.1s-7.54,1.83-7.54,4.1v9.93h15.08v-9.93Z" fill="none" stroke="#000" stroke-miterlimit="10"/><path d="M12.35,5.6c0,2.08-1.69,3.77-3.77,3.77s-3.77-1.69-3.77-3.77,1.69-3.77,3.77-3.77,3.77,1.69,3.77,3.77" fill="none" stroke="#000" stroke-miterlimit="10"/><path d="M9.84,19v-.17c0-.82,.23-1.63,.64-2.35,.72-1.34,2.09-2.42,3.84-3.16-1.38-.88-3.44-1.44-5.74-1.44-4.16,0-7.54,1.83-7.54,4.1v12.86H9.84v-9.84Z" fill="none" stroke="#000" stroke-miterlimit="10"/></svg>