<?xml version="1.0" encoding="UTF-8"?><svg id="a" xmlns="http://www.w3.org/2000/svg" viewBox="0 0 29 30"><path d="M19.78,29.1c-1.1,0-2.21-.23-3.26-.7-6.84-3.11-12.32-8.59-15.42-15.42C-.25,9.99,.39,6.43,2.71,4.11l2.08-2.08c1.46-1.46,4-1.46,5.46,0l2.8,2.8c1.18,1.18,1.47,2.97,.72,4.46l-.78,1.56c-.26,.52-.16,1.15,.25,1.56l3.83,3.83c.41,.41,1.04,.52,1.56,.25l1.56-.78c1.49-.74,3.28-.45,4.46,.72l2.8,2.8c.73,.73,1.13,1.7,1.13,2.73s-.4,2-1.13,2.73l-2.08,2.08c-1.51,1.51-3.55,2.31-5.61,2.31ZM7.53,2.89c-.5,0-.97,.19-1.32,.55l-2.08,2.08c-1.73,1.73-2.21,4.4-1.2,6.63,2.91,6.4,8.03,11.52,14.43,14.43,2.23,1.01,4.89,.53,6.62-1.2l2.08-2.08c.35-.35,.55-.82,.55-1.32s-.19-.97-.55-1.32l-2.8-2.8c-.57-.57-1.43-.71-2.15-.35l-1.56,.78c-1.29,.65-2.85,.39-3.87-.63l-3.83-3.83c-1.02-1.02-1.28-2.58-.63-3.87l.78-1.56c.36-.72,.22-1.58-.35-2.15l-2.8-2.8c-.35-.35-.82-.55-1.32-.55Z" fill="#010101"/></svg>