<?xml version="1.0" encoding="UTF-8"?><svg id="a" xmlns="http://www.w3.org/2000/svg" viewBox="0 0 29 30"><path d="M17.91,21.24s-.09-.02-.13-.05l-3.28-3.28-3.28,3.28c-.07,.07-.19,.07-.26,0l-2.65-2.65c-.07-.07-.07-.19,0-.26l3.28-3.28-3.28-3.28c-.07-.07-.07-.19,0-.26l2.65-2.65c.07-.07,.19-.07,.26,0l3.28,3.28,3.28-3.28c.07-.07,.19-.07,.26,0l2.65,2.65c.07,.07,.07,.19,0,.26l-3.28,3.28,3.28,3.28c.07,.07,.07,.19,0,.26l-2.65,2.65s-.08,.05-.13,.05h0Zm-3.41-3.77s.09,.02,.13,.05l3.28,3.28,2.4-2.4-3.28-3.28c-.07-.07-.07-.19,0-.26l3.28-3.28-2.4-2.4-3.28,3.28c-.07,.07-.19,.07-.26,0l-3.28-3.28-2.4,2.4,3.28,3.28c.07,.07,.07,.19,0,.26l-3.28,3.28,2.4,2.4,3.28-3.28s.08-.05,.13-.05h0Z" stroke="#000" stroke-miterlimit="10"/><path d="M14.5,28.78c-3.68,0-7.14-1.43-9.74-4.03C2.16,22.14,.72,18.68,.72,15S2.16,7.86,4.76,5.26C7.36,2.66,10.82,1.22,14.5,1.22s7.14,1.43,9.74,4.03c2.6,2.6,4.03,6.06,4.03,9.74s-1.43,7.14-4.03,9.74c-2.6,2.6-6.06,4.03-9.74,4.03h0ZM14.5,1.59C7.1,1.59,1.09,7.6,1.09,15s6.02,13.41,13.41,13.41,13.41-6.02,13.41-13.41S21.9,1.59,14.5,1.59Z" stroke="#000" stroke-miterlimit="10"/><path d="M14.5,25.76c-5.93,0-10.76-4.82-10.76-10.76,0-.1,.08-.18,.18-.18s.18,.08,.18,.18c0,5.73,4.66,10.39,10.39,10.39,.1,0,.18,.08,.18,.18s-.08,.18-.18,.18h0Z" stroke="#000" stroke-miterlimit="10"/><path d="M23.87,10.27c-.07,0-.13-.04-.16-.1-1.8-3.43-5.33-5.56-9.21-5.56-.1,0-.18-.08-.18-.18s.08-.18,.18-.18c4.01,0,7.66,2.21,9.53,5.76,.05,.09,.01,.2-.08,.24-.03,.01-.06,.02-.08,.02h0Z" stroke="#000" stroke-miterlimit="10"/></svg>