<?xml version="1.0" encoding="UTF-8"?><svg id="a" xmlns="http://www.w3.org/2000/svg" viewBox="0 0 29 30"><path d="M16.6,28.9l-1.58-2.3c-.98,.05-1.95-.03-2.9-.22l-1.66,2.39-7.3-5.03,1.66-2.39c-.53-.83-.95-1.71-1.24-2.6l-2.89-.24,.7-8.83,2.89,.22c.22-.43,.47-.84,.76-1.25,.31-.44,.6-.81,.9-1.14l-1.24-2.6L12.72,1.1l1.26,2.63c.98-.05,1.94,.03,2.89,.22l1.66-2.39,7.3,5.03-1.66,2.39c.53,.83,.95,1.7,1.24,2.6l2.89,.22-.71,8.83-2.89-.22c-.22,.43-.47,.84-.76,1.25-.28,.4-.58,.77-.9,1.13l1.24,2.61-6.63,3.15-1.05,.34Zm-.46-4.27l1.01,2.11,4.66-2.21-1-2.1,.46-.46c.42-.42,.8-.88,1.15-1.37,.35-.5,.63-1,.86-1.52l.26-.61,2.34,.18,.41-5.13-2.34-.18-.16-.65c-.28-1.1-.79-2.16-1.51-3.17l-.38-.53,1.33-1.92-4.24-2.92-1.34,1.93-.63-.17c-1.14-.31-2.33-.4-3.52-.27l-.65,.07-1.02-2.12-4.65,2.21,1,2.11-.49,.46c-.38,.36-.73,.78-1.14,1.36-.35,.5-.63,1-.86,1.53l-.26,.61-2.34-.18-.41,5.14,2.34,.2,.16,.64c.28,1.1,.79,2.16,1.51,3.17l.38,.53-1.33,1.92,4.24,2.92,1.34-1.93,.63,.17c1.14,.31,2.33,.4,3.52,.27l.65-.07Z"/><path d="M14.49,21.6c-1.3,0-2.57-.39-3.65-1.14-2.92-2.02-3.66-6.04-1.65-8.95,.98-1.42,2.45-2.37,4.13-2.68,1.69-.31,3.4,.06,4.82,1.03,2.91,2.01,3.65,6.02,1.65,8.95-1.21,1.75-3.19,2.79-5.3,2.79Zm0-11.02c-.28,0-.56,.03-.84,.08-1.2,.22-2.25,.9-2.94,1.91-1.43,2.07-.9,4.93,1.18,6.37,.77,.53,1.67,.81,2.6,.81,1.5,0,2.91-.74,3.77-1.99,1.42-2.08,.89-4.93-1.18-6.36-.77-.53-1.67-.81-2.59-.81Zm-.04,8.05c-.69,0-1.37-.21-1.95-.61-1.56-1.09-1.95-3.25-.87-4.81,1.06-1.52,3.31-1.92,4.81-.9,1.56,1.1,1.95,3.25,.88,4.82-.53,.76-1.31,1.28-2.22,1.44-.21,.04-.43,.06-.64,.06Zm.03-5.06c-.53,0-1.02,.26-1.33,.69-.5,.72-.32,1.72,.41,2.23,.35,.24,.77,.34,1.19,.25,.42-.08,.79-.32,1.03-.67,.5-.72,.32-1.73-.41-2.23-.26-.17-.57-.27-.9-.27Z"/></svg>