<?xml version="1.0" encoding="UTF-8"?><svg id="a" xmlns="http://www.w3.org/2000/svg" viewBox="0 0 29 30"><path d="M26.24,14.68l-2.91-2.01c-.39-.27-.65-.67-.73-1.13-.08-.46,.01-.93,.28-1.32l2-2.91,1.23,.85-2,2.91c-.05,.08-.05,.15-.04,.19,0,.04,.03,.11,.11,.17l2.91,2.01-.85,1.24Z"/><path d="M15.82,29.78c-.35,0-.7-.11-1-.31L2.35,20.87c-.8-.55-1-1.65-.45-2.45L13.91,.99c.27-.39,.67-.65,1.13-.73,.46-.08,.93,.02,1.32,.28l9.22,6.35c.38,.26,.65,.67,.73,1.13l1.01,5.5c.08,.45-.02,.94-.28,1.32l-9.77,14.18c-.27,.39-.67,.65-1.13,.73-.11,.02-.22,.03-.32,.03Zm-.45-28.05s-.04,0-.05,0c-.04,0-.11,.03-.17,.11L3.13,19.27c-.08,.12-.05,.28,.07,.36l12.47,8.59c.08,.05,.16,.05,.19,.04,.04,0,.11-.03,.17-.11l9.77-14.18c.04-.06,.05-.13,.04-.19l-1.01-5.5c-.01-.07-.05-.13-.11-.17h0L15.51,1.77c-.05-.04-.11-.05-.15-.05Z"/><path d="M15.45,22.51l-.57-1.19c-.65,.07-1.31,.02-1.94-.15l-.75,1.08-2.9-2,.75-1.08c-.38-.53-.67-1.12-.83-1.75l-1.31-.11,.28-3.51,1.31,.1c.13-.3,.29-.58,.48-.85,.19-.27,.39-.52,.63-.75l-.56-1.18,3.18-1.51,.57,1.19c.65-.07,1.31-.02,1.94,.15l.75-1.08,2.9,2-.75,1.08c.38,.53,.67,1.12,.83,1.75l1.31,.1-.28,3.51-1.31-.1c-.13,.3-.29,.58-.48,.85h0c-.19,.27-.4,.52-.63,.75l.56,1.18-3.18,1.51Zm.29-2.88l.42,.88,.47-.22-.42-.88,.47-.37c.3-.23,.56-.51,.78-.83,.22-.31,.38-.66,.5-1.02l.18-.57,.97,.08,.04-.52-.97-.08-.09-.59c-.11-.76-.44-1.46-.96-2.02l-.41-.44,.55-.8-.43-.29-.55,.8-.56-.22c-.71-.28-1.48-.34-2.23-.18l-.58,.13-.42-.88-.47,.22,.42,.88-.47,.37c-.3,.24-.56,.51-.77,.83-.22,.31-.38,.66-.5,1.02l-.18,.57-.97-.08-.04,.52,.97,.08,.09,.59c.11,.76,.44,1.46,.96,2.02l.41,.44-.55,.8,.43,.29,.55-.8,.56,.22c.71,.28,1.48,.34,2.23,.17l.58-.13Z"/><path d="M14.33,18.83c-.54,0-1.09-.16-1.57-.49-1.26-.87-1.58-2.59-.71-3.85s2.59-1.58,3.85-.71c1.26,.87,1.57,2.59,.71,3.85h0c-.54,.78-1.4,1.2-2.28,1.2Zm0-4.04c-.4,0-.8,.19-1.05,.55-.4,.58-.25,1.37,.32,1.77,.58,.4,1.37,.25,1.77-.33h0c.4-.58,.25-1.37-.32-1.77-.22-.15-.47-.22-.72-.22Z"/></svg>