<?xml version="1.0" encoding="UTF-8"?><svg id="a" xmlns="http://www.w3.org/2000/svg" viewBox="0 0 29 30"><path d="M8.33,24.99c.24-.12,.36-.3,.36-.53V14.91c0-.24-.12-.47-.36-.53-1.01-.42-2.13-.53-3.2-.36v-2.73c.06-5.16,4.21-9.31,9.37-9.31s9.31,4.15,9.31,9.31v2.73c-1.07-.18-2.13-.06-3.2,.36-.24,.12-.36,.3-.36,.53v9.49c-.18,.47-1.13,2.96-3.97,2.91v-.06c0-1.07-.89-1.96-1.96-1.96s-1.96,.89-1.96,1.96,.89,1.96,1.96,1.96c.65,0,1.19-.3,1.54-.77,2.55,.18,4.45-1.25,5.34-3.26,3.74,1.19,7.35-1.66,7.35-5.46,0-2.31-1.42-4.45-3.56-5.34v-3.08C25,5.48,20.31,.8,14.5,.8S4,5.48,4,11.23v3.14c-2.13,.89-3.56,2.96-3.56,5.34,0,3.97,4.09,6.82,7.89,5.28h0Zm5.99,3.02c-.42,0-.77-.36-.77-.77s.36-.77,.77-.77,.77,.36,.77,.77-.36,.77-.77,.77Zm13.05-8.36c0,3.02-2.96,5.28-5.99,4.39V15.27c2.96-.83,5.99,1.3,5.99,4.39h0ZM7.62,15.27v8.72c-2.96,.95-5.99-1.3-5.99-4.33,0-3.08,2.96-5.22,5.99-4.39Z"/></svg>