<?xml version="1.0" encoding="UTF-8"?><svg id="a" xmlns="http://www.w3.org/2000/svg" viewBox="0 0 29 30"><path d="M15.37,13.31s-.08,0-.11,0c-.15-.01-.3-.06-.44-.13-.14-.07-.26-.17-.36-.29-.1-.12-.18-.26-.22-.41l-.12-.38-.19,.36c-.07,.14-.17,.26-.29,.36-.12,.1-.26,.17-.41,.22-.15,.05-.31,.06-.46,.05-.15-.01-.3-.06-.44-.13l-1.31-.69c-.14-.07-.26-.17-.36-.29-.1-.12-.18-.26-.22-.41-.05-.15-.06-.3-.05-.46,.01-.15,.06-.3,.13-.44l.19-.36-.39,.12c-.15,.05-.3,.06-.46,.05-.16-.02-.31-.06-.44-.13-.14-.07-.26-.17-.36-.29-.1-.12-.17-.26-.22-.41l-.43-1.41c-.05-.15-.06-.3-.05-.46,.01-.15,.06-.3,.13-.44,.07-.14,.17-.26,.29-.36,.12-.1,.26-.18,.41-.22l.39-.12-.36-.19c-.14-.07-.26-.17-.36-.29-.1-.12-.17-.26-.22-.4-.05-.15-.06-.3-.05-.46,.01-.16,.06-.3,.13-.44l.69-1.3c.07-.14,.17-.26,.29-.36,.12-.1,.25-.17,.4-.22,.15-.05,.3-.06,.46-.05,.15,.01,.31,.06,.44,.13l.35,.19-.12-.39c-.05-.15-.06-.31-.05-.46,.01-.15,.06-.3,.13-.44,.07-.14,.17-.26,.29-.36,.12-.1,.26-.17,.41-.22h0l1.41-.43c.15-.05,.3-.06,.46-.05,.15,.02,.31,.06,.44,.13,.14,.07,.26,.17,.36,.29,.1,.12,.17,.26,.22,.41l.12,.39,.19-.36c.07-.14,.17-.26,.29-.36,.12-.1,.26-.17,.41-.22,.14-.04,.3-.06,.46-.05,.15,.01,.3,.06,.44,.13l1.3,.69c.14,.07,.26,.17,.36,.29,.1,.12,.17,.25,.22,.4,.05,.16,.06,.31,.05,.46-.01,.15-.06,.3-.13,.44l-.19,.36,.39-.12c.15-.05,.31-.06,.46-.05,.15,.01,.3,.06,.44,.13,.14,.07,.26,.17,.36,.29,.1,.12,.17,.26,.22,.41l.43,1.41c.05,.15,.06,.31,.05,.46-.01,.15-.06,.3-.13,.44-.07,.14-.17,.26-.29,.36-.12,.1-.26,.17-.41,.22l-.39,.12,.36,.19c.14,.07,.26,.17,.36,.29,.1,.12,.17,.26,.22,.41,.05,.15,.06,.3,.05,.46-.01,.15-.06,.3-.13,.44l-.69,1.3c-.07,.14-.17,.26-.29,.36-.12,.1-.26,.17-.41,.22-.15,.05-.3,.06-.46,.05-.15-.01-.31-.06-.44-.13l-.36-.19,.12,.39c.05,.15,.06,.3,.05,.46-.01,.15-.06,.3-.13,.44-.07,.14-.17,.26-.29,.36-.12,.1-.26,.17-.41,.22l-1.42,.43c-.11,.03-.23,.05-.35,.05Zm-1.59-2.71l.35,.05c.09,.01,.18,.02,.27,.03l.35,.02,.46,1.49-.15,.55,.23-.44h.14l1.41-.42,.55,.15-.44-.23v-.14l-.44-1.48,.28-.21c.07-.06,.15-.11,.21-.18l.26-.23,1.36,.72,.29,.49-.15-.48,.55,.15-.44-.23,.69-1.3v-.14l-.08-.11-1.35-.72,.05-.35c.01-.1,.02-.19,.03-.29l.02-.35,1.46-.45,.55,.15-.44-.23,.49-.29-.48,.15-.44-1.41-.09-.11-.29-.49,.15,.48-1.46,.45-.21-.28c-.06-.08-.12-.15-.18-.22l-.23-.26,.71-1.35,.49-.29-.48,.15,.14-.55-.23,.44-1.3-.69h-.14l-.55-.16,.44,.23-.72,1.36-.34-.04c-.09-.01-.19-.02-.28-.03l-.35-.02-.45-1.48,.15-.55-.23,.44h-.14l-1.41,.42s-.04,.02-.06,.03l-.06,.12,.46,1.56-.27,.21c-.07,.06-.14,.11-.21,.17l-.26,.23-1.38-.73-.29-.49,.15,.48-.55-.15,.44,.23-.69,1.3-.49,.29,.48-.15-.15,.55,.23-.44,1.38,.73-.04,.34c-.01,.09-.02,.17-.02,.26l-.02,.35-1.5,.46-.55-.15,.44,.23v.14l.42,1.41-.15,.55,.23-.44h.14l1.5-.45,.21,.28c.05,.07,.11,.14,.17,.2l.23,.26-.74,1.38h0v.14l-.16,.55,.23-.44,1.3,.69,.29,.49-.15-.48,.55,.15-.44-.23,.73-1.38Z"/><path d="M26.43,8.33c-.33,.09-.64,.27-.88,.55h0l-3.77,4.37c-.65-.72-1.68-1.02-2.51-.52l-4.46,2.69-4.33-.88c-.08-.02-.17-.02-.26,0-.09,.02-.16,.05-.24,.1l-4.71,2.95-.4-.64c-.05-.08-.11-.14-.18-.19-.07-.05-.16-.09-.25-.11-.09-.02-.18-.02-.27,0-.09,.01-.17,.05-.25,.1l-3.24,2.02c-.08,.05-.14,.11-.19,.18-.05,.07-.09,.16-.11,.25s-.02,.18,0,.27c.01,.09,.05,.17,.1,.25l5.67,9.06c.05,.08,.11,.14,.18,.19,.07,.05,.16,.09,.25,.11s.18,.02,.27,0c.09-.01,.17-.05,.25-.1l3.15-1.97c.07-.05,.14-.11,.19-.18s.08-.16,.1-.24c.02-.09,.02-.17,0-.26-.01-.09-.04-.17-.09-.24l-.67-1.13c1.21-.49,2.21-.61,5.09-1.18,2.55-.5,3.7-.51,6.16-2.04h.01c2.65-1.66,3.94-4.73,4.75-6.1l2.65-4.24c.23-.37,.39-.81,.39-1.27,0-.46-.19-.96-.57-1.32h0c-.5-.47-1.2-.62-1.83-.44h0Zm.36,1.32c.18-.05,.39-.02,.54,.12,.11,.1,.13,.17,.13,.32,0,.15-.06,.35-.18,.55l-2.65,4.25h0c-.92,1.56-2.15,4.3-4.32,5.65-2.31,1.44-3.07,1.35-5.7,1.87-2.99,.59-4.11,.74-5.53,1.34l-1.1-1.84c-.05-.08-.1-.15-.17-.2-.07-.05-.16-.09-.25-.11-.09-.02-.17-.03-.26-.02-.09,.01-.18,.05-.26,.09s-.14,.11-.19,.18-.09,.16-.11,.25c-.02,.09-.03,.17-.02,.26,.01,.09,.06,.18,.1,.26l2.13,3.56-2.01,1.26L1.99,19.53l2.09-1.3,1.39,2.23c.05,.08,.11,.14,.18,.19,.07,.05,.16,.09,.25,.11s.18,.02,.27,0,.18-.04,.25-.09,.15-.11,.2-.18c.05-.07,.08-.16,.1-.24s.02-.18,0-.27c-.02-.09-.05-.17-.1-.25l-.63-1.01,4.47-2.81,4.32,.88c.08,.02,.18,.02,.26,0,.08-.01,.16-.05,.23-.09l4.7-2.83c.19-.11,.64-.03,.92,.43,.29,.46,.17,.9,0,1.01l-5.42,3.39c-.08,.05-.15,.11-.2,.18-.05,.07-.08,.16-.1,.24-.02,.09-.03,.18-.02,.27,.01,.09,.05,.17,.1,.25,.05,.08,.11,.15,.18,.2,.07,.05,.16,.08,.24,.1,.09,.02,.18,.02,.27,0,.09-.02,.17-.05,.25-.1l5.42-3.39c.66-.41,.9-1.15,.79-1.88l4.18-4.83c.06-.06,.13-.1,.21-.13h0Z" fill-rule="evenodd"/></svg>