<?xml version="1.0" encoding="UTF-8"?><svg id="a" xmlns="http://www.w3.org/2000/svg" viewBox="0 0 149.06 149.06"><path d="M74.53,149.06C33.43,149.06,0,115.63,0,74.53S33.43,0,74.53,0s74.53,33.43,74.53,74.53-33.43,74.53-74.53,74.53Zm0-147.06C34.54,2,2,34.54,2,74.53s32.54,72.53,72.53,72.53,72.53-32.54,72.53-72.53S114.53,2,74.53,2Z"/><path d="M84.86,77.32c7.25-3.77,12.24-11.31,12.24-20.05,0-12.45-10.12-22.57-22.57-22.57s-22.57,10.12-22.57,22.57c0,8.71,4.97,16.28,12.24,20.05-16.22,4.51-28.17,19.41-28.17,37.04h5.31c0-18.3,14.9-33.19,33.19-33.19s33.19,14.9,33.19,33.19h5.31c0-17.63-11.95-32.53-28.17-37.04Zm-27.59-20.05c0-9.51,7.75-17.26,17.26-17.26s17.26,7.75,17.26,17.26-7.75,17.26-17.26,17.26-17.26-7.75-17.26-17.26Z"/></svg>