<?xml version="1.0" encoding="UTF-8"?><svg id="a" xmlns="http://www.w3.org/2000/svg" viewBox="0 0 27.74 29.71"><path d="M15.92,15.65c1.44-.75,2.43-2.25,2.43-3.98,0-2.47-2.01-4.48-4.48-4.48s-4.48,2.01-4.48,4.48c0,1.73,.99,3.23,2.43,3.98-3.22,.9-5.59,3.85-5.59,7.35h1.05c0-3.63,2.95-6.59,6.59-6.59s6.59,2.95,6.59,6.59h1.05c0-3.5-2.37-6.45-5.59-7.35Zm-5.48-3.98c0-1.89,1.54-3.42,3.42-3.42s3.42,1.54,3.42,3.42-1.54,3.42-3.42,3.42-3.42-1.54-3.42-3.42Z" fill="#010101"/><circle cx="13.87" cy="1.4" r="1.4" fill="#010101"/><path d="M15.9,.85c.05,.18,.08,.36,.08,.55,0,.14-.01,.28-.04,.42h10.83V28.74H.97V1.82H11.8c-.03-.14-.04-.28-.04-.42,0-.19,.03-.38,.08-.55H0V29.71H27.74V.85H15.9Z" fill="#010101"/></svg>