<?xml version="1.0" encoding="utf-8"?>
<!-- Generator: Adobe Illustrator 26.3.1, SVG Export Plug-In . SVG Version: 6.00 Build 0)  -->
<svg version="1.1" id="Layer_1" xmlns="http://www.w3.org/2000/svg" xmlns:xlink="http://www.w3.org/1999/xlink" x="0px" y="0px"
	 viewBox="0 0 50 50" style="enable-background:new 0 0 50 50;" xml:space="preserve">
<style type="text/css">
	.st0{fill-rule:evenodd;clip-rule:evenodd;}
</style>
<path class="st0" d="M11.6,0h5.1v10.9c0,5.1-3,8.2-8.3,8.2c-5.5,0-8.4-3.2-8.4-8.2V0h5.1v11c0,2.2,1.2,3.4,3.3,3.4
	c2,0,3.3-1.2,3.3-3.4V0z M8.6,37.9l1.6,0.4c4.5,1.1,6.2,3.2,6.2,5.8c0,3.5-3.1,5.9-8.3,5.9c-2.9,0-6.5-1.2-7.8-3.7l3.1-2.5
	c1.3,1.3,2.7,2.1,4.7,2.1c1.7,0,3-0.6,3-1.6c0-0.8-0.6-1.1-2.3-1.5l-1.7-0.4c-4.5-1.1-6.3-3.7-6.3-6.1c0-3.2,2.8-5.8,7.7-5.8
	c2.9,0,5.8,1.2,7.1,3.5l-3.1,2.5c-1.1-1-2.4-1.7-4-1.7c-1.8,0-2.6,0.7-2.6,1.4C6,37,6.8,37.5,8.6,37.9z M29.1,30.9h16.1v4.4h-5.5
	v14.1h-5.1V35.3h-5.5V30.9z M40.8,12.7h-7.2V5.5h7.2V12.7z"/>
</svg>
