<?xml version="1.0" encoding="UTF-8"?><svg id="a" xmlns="http://www.w3.org/2000/svg" viewBox="0 0 29 30"><path d="M14.64,10.72c-2.91,0-5.29,2.37-5.29,5.29s2.37,5.29,5.29,5.29,5.29-2.37,5.29-5.29-2.37-5.29-5.29-5.29Zm0,8.1c-1.55,0-2.81-1.26-2.81-2.81s1.26-2.81,2.81-2.81,2.81,1.26,2.81,2.81-1.26,2.81-2.81,2.81Zm14.13-3.53c-3.49-4.91-8.64-7.72-14.13-7.72S4,10.38,.51,15.29L0,16.01l.51,.72c1.64,2.31,3.73,4.22,6.05,5.55,.19,.11,.4,.16,.61,.16,.43,0,.85-.22,1.08-.62,.34-.59,.13-1.35-.46-1.69-1.76-1.01-3.38-2.42-4.72-4.11,2.99-3.8,7.17-5.96,11.58-5.96,4.68,0,9.09,2.44,12.11,6.68,.4,.56,1.17,.69,1.73,.29,.56-.4,.69-1.17,.29-1.72h0Z" fill="#010101"/></svg>